<!DOCTYPE svg PUBLIC "-//W3C//DTD SVG 1.1//EN" "http://www.w3.org/Graphics/SVG/1.1/DTD/svg11.dtd">
<!-- Uploaded to: SVG Repo, www.svgrepo.com, Transformed by: SVG Repo Mixer Tools -->
<svg fill="#9141ac" version="1.1" id="Capa_1" xmlns="http://www.w3.org/2000/svg" xmlns:xlink="http://www.w3.org/1999/xlink" width="800px" height="800px" viewBox="-42.6 -42.6 511.20 511.20" xml:space="preserve" stroke="#9141ac" transform="matrix(1, 0, 0, 1, 0, 0)rotate(0)">
<g id="SVGRepo_bgCarrier" stroke-width="0" transform="translate(0,0), scale(1)">
<path transform="translate(-42.6, -42.6), scale(15.975)" d="M16,28.19609898745137C17.834695554461934,28.192695699439813,19.780310698635315,29.00088258462136,21.443868841495892,28.227129610311113C23.10862175371426,27.452820925731185,24.074931086600763,25.665898826411567,24.931446811574904,24.041910830573094C25.70147990206354,22.581897361013382,25.207529956895318,20.65201557761579,26.152783575040864,19.29883935512072C27.58781037470245,17.244529160831412,31.235494274262226,16.81176459737181,31.70191219921078,14.349662526093157C32.10572365647003,12.218044138069777,29.911482770477466,10.209139522597265,28.101258217712477,9.013335310470534C26.329016011462695,7.8426216043144406,23.580340040331553,9.178331894475598,21.902289783481482,7.876195052634374C20.141984822390036,6.510230038561585,20.72273304403228,3.340259166257848,18.988174162715342,1.9417458617238648C17.291614310486743,0.5738698265912336,14.78032842503585,-0.18135530635753772,12.695381282076733,0.45299127931208893C10.574820027751331,1.098173482576699,9.71959686025426,3.640521744580833,8.176100763851078,5.231326543776397C6.860751822460741,6.586991396740155,4.730543331037307,7.378256445672423,4.213365782881093,9.194983561906739C3.6761819978367876,11.081988038745699,5.340459483960602,12.928647644530804,5.426878226498232,14.888720121625216C5.498863986728438,16.521436627636685,4.343992640272875,18.079211018859695,4.675624113185105,19.67951277317114C5.0119059957897605,21.30225527691961,6.346760716788012,22.481278614038658,7.283577633693893,23.84830195043016C8.327100940052093,25.371033538766106,8.895245864306903,27.423373317890924,10.547131742960833,28.24734262856493C12.191680018291997,29.067651904347915,14.162220166481742,28.19950799667913,16,28.19609898745137" fill="#e5a50a" strokewidth="0"/>
</g>
<g id="SVGRepo_tracerCarrier" stroke-linecap="round" stroke-linejoin="round" stroke="#CCCCCC" stroke-width="0.8520059999999999"/>
<g id="SVGRepo_iconCarrier"> <g> <path d="M426.003,147.283c0-75.259-61.001-136.254-136.249-136.254c-69.853,0-127.327,52.6-135.232,120.327L8.809,255.267 c-10.521,8.956-11.8,24.744-2.854,35.276c8.956,10.521,24.737,11.806,35.259,2.86L161.015,191.51 c3.935,11.42,9.208,22.21,15.869,32.042L8.809,366.48c-10.521,8.967-11.8,24.743-2.854,35.264 c8.944,10.533,24.737,11.807,35.259,2.85l170.982-145.402c10.965,7.613,23.062,13.686,36.036,17.818l-110.39,93.873 c-10.533,8.967-11.812,24.755-2.855,35.275c8.957,10.533,24.738,11.807,35.259,2.861l152.521-129.697 C382.039,264.539,426.003,211.098,426.003,147.283z"/> </g> </g>
</svg>